<?xml version="1.0" encoding="UTF-8"?>
<svg id="Camada_1" data-name="Camada 1" xmlns="http://www.w3.org/2000/svg" viewBox="0 0 4733.89 1890.49">
  <defs>
    <style>
      .cls-1 {
        fill: #000;
        stroke-width: 0px;
      }
    </style>
  </defs>
  <path class="cls-1" d="M4478.48,1433.93c78.35,0,156.69-.03,235.04.02,21.71.01,25.21,6.12,14.55,25.27-77.52,139.19-154.98,278.4-232.92,417.35-3.33,5.93-11.17,9.33-16.91,13.91-3.67-5.92-9.35-11.42-10.71-17.83-16.66-78.81-32.5-157.79-49.19-236.59-1.41-6.66-6.23-13.63-11.4-18.32-58.34-52.91-117.11-105.34-175.54-158.14-4.2-3.8-9.18-9.34-9.47-14.32-.65-11.16,8.52-11.4,17-11.39,50.72.07,101.45.03,152.17.02,29.13,0,58.26,0,87.39,0ZM4687.63,1484.55c-.96-.94-1.92-1.88-2.88-2.82-4.32,2.29-8.73,4.41-12.93,6.89-72.62,42.83-145.05,85.99-217.99,128.27-11.33,6.57-13.53,13.41-10.94,25.31,9.37,43.03,17.86,86.26,26.79,129.39,4.82,23.29,9.88,46.54,14.83,69.8,1.31.24,2.62.48,3.92.71,66.4-119.19,132.81-238.37,199.21-357.56ZM4268.52,1457.74c-.57,1.21-1.14,2.42-1.72,3.62,3.44,2.87,6.97,5.62,10.29,8.61,46.27,41.58,92.76,82.93,138.57,125.01,9.39,8.62,16.25,9.23,27.14,2.7,73.13-43.88,146.68-87.06,220.05-130.55,3.47-2.06,6.51-4.84,12.56-9.4h-406.89Z"/>
  <path class="cls-1" d="M4701.47,255.64c.01,75.56.01,151.11.01,226.67,0,3.41.89,7.16-.23,10.16-2.38,6.39-4.55,15.94-9.16,17.58-4.95,1.76-14.15-2.44-18.84-6.85-44.76-42.07-88.96-84.73-133.32-127.23-16.84-16.13-34.27-31.71-50.26-48.64-9.6-10.16-15.57-8.31-24.72.57-58.81,57.01-118.12,113.49-177.3,170.12-4.1,3.93-7.85,8.69-12.72,11.27-9.89,5.23-17.95,3.26-20.12-9.1-.97-5.54-.81-11.32-.81-16.99-.04-152.24-.05-304.48,0-456.73,0-24.62,1.83-26.44,25.91-26.44,132.12-.04,264.23-.04,396.35,0,23.03,0,25.15,2.09,25.17,25.55.08,76.69.03,153.37.04,230.06ZM4281.02,466.94c7.56-6.6,12.26-10.4,16.62-14.57,53.42-51.11,106.8-102.27,160.16-153.44,18.28-17.53,21.05-17.59,38.82-.56,52.97,50.76,105.94,101.52,158.96,152.23,5.03,4.81,10.38,9.29,18.21,16.25.88-9.19,1.75-14.07,1.76-18.95.07-134.62-.2-269.24.38-403.86.07-16.01-6.26-18.47-20.2-18.42-117.86.44-235.73.24-353.6.25-22.38,0-22.56.04-22.57,22.38-.06,132.35-.05,264.7.01,397.04,0,5.94.77,11.88,1.45,21.63Z"/>
  <path class="cls-1" d="M288.79,1031.07c6.13-7.67,10.49-13.25,14.96-18.72,39.74-48.61,100.27-68.26,154.97-50.34,68.87,22.57,113.48,76.5,118.1,139.91,5.78,79.42-24.36,144.5-80.82,197.25-63.07,58.93-128.98,114.84-193.35,172.4-10.44,9.34-18.25,8.46-28.35-.57-63.93-57.23-129.47-112.73-192.08-171.35-59.64-55.84-91.35-124.4-79.92-208.21,8.62-63.16,56.12-114.65,123.65-131.01,62.32-15.1,112.23,7.29,151.42,56.29,3.37,4.22,6.73,8.45,11.41,14.33ZM287.9,1449c3.32-2.23,5.75-3.5,7.74-5.25,61.77-54.7,124.74-108.13,184.82-164.63,45.06-42.37,71.8-94.54,72-158.93.25-81.03-71.99-148.78-150.53-138.26-45.56,6.1-74.31,35.17-96.85,72.28-13.27,21.84-19.53,21.91-32.46.43-18.9-31.41-42.57-57.48-78.98-68.75-85.6-26.49-176.29,53.32-168.62,145.58,5.47,65.75,36.73,116.09,83.59,159.03,25.54,23.41,51.88,45.95,77.85,68.89,33.73,29.79,67.45,59.58,101.45,89.62Z"/>
  <path class="cls-1" d="M1394.23,1210.48c-.24,45.03-8.92,81.99-25.29,117.47-3.22,6.98-3.83,17.09-1.43,24.38,11.98,36.45,25.7,72.33,37.92,108.71,1.93,5.75,1.49,14.76-1.92,18.99-2.48,3.08-12.35,2.58-17.77.58-34.52-12.78-68.49-27.07-103.19-39.28-8.09-2.85-19.71-2.47-27.39,1.23-153.17,73.75-328.66-13.11-362.17-179.8-27.95-139.06,73.26-279.14,213.83-295.95,140.13-16.75,259.91,71.71,284.41,210.4,2.28,12.91,2.38,26.21,2.98,33.29ZM1373.49,1448.21c-2.44-8.05-3.77-13.13-5.51-18.08-8.54-24.33-16.63-48.85-26.02-72.86-5.19-13.26-5.09-24.51,2.02-37.4,17.85-32.36,25.73-67.83,25.47-104.53-1-138.38-123.38-244.13-260.57-223.08-95.47,14.65-159.38,70.47-185.73,162.98-26.22,92.07-.77,173.01,72.19,234.48,74.21,62.53,158.82,71.23,246.8,29.97,18.12-8.5,32.51-10.99,50.68-2.19,20.21,9.79,41.84,16.7,62.89,24.76,4.86,1.86,9.89,3.31,17.79,5.93Z"/>
</svg>