<?xml version="1.0" encoding="UTF-8"?>
<svg id="Camada_1" data-name="Camada 1" xmlns="http://www.w3.org/2000/svg" viewBox="0 0 4701.82 962.71">
  <defs>
    <style>
      .cls-1 {
        fill: #000;
        stroke-width: 0px;
      }
    </style>
  </defs>
  <path class="cls-1" d="M1987.56,18.03c85.86,0,171.71-.03,257.57.02,23.79.02,27.63,6.71,15.94,27.69-84.95,152.53-169.84,305.09-255.25,457.36-3.64,6.5-12.24,10.23-18.54,15.25-4.02-6.49-10.25-12.51-11.73-19.54-18.25-86.36-35.62-172.91-53.91-259.27-1.55-7.3-6.83-14.93-12.5-20.08-63.93-57.98-128.33-115.44-192.37-173.3-4.6-4.16-10.06-10.23-10.38-15.69-.72-12.23,9.33-12.49,18.63-12.48,55.59.07,111.17.03,166.76.03,31.92,0,63.84,0,95.76,0ZM2216.75,73.51c-1.05-1.03-2.11-2.06-3.16-3.1-4.73,2.51-9.57,4.84-14.17,7.55-79.58,46.94-158.96,94.23-238.89,140.57-12.41,7.2-14.83,14.69-11.99,27.74,10.27,47.16,19.57,94.53,29.36,141.79,5.29,25.52,10.82,51,16.25,76.49,1.43.26,2.87.52,4.3.78,72.77-130.61,145.54-261.22,218.31-391.83ZM1757.46,44.13c-.63,1.32-1.25,2.65-1.88,3.97,3.77,3.14,7.64,6.16,11.28,9.44,50.71,45.57,101.66,90.88,151.86,137,10.29,9.45,17.81,10.12,29.74,2.96,80.14-48.09,160.74-95.41,241.14-143.06,3.8-2.25,7.13-5.3,13.76-10.3h-445.89Z"/>
  <path class="cls-1" d="M4701.47,706.35c.01,75.56.01,151.11.01,226.67,0,3.41.89,7.16-.23,10.16-2.38,6.39-4.55,15.94-9.16,17.58-4.95,1.76-14.15-2.44-18.84-6.85-44.76-42.07-88.96-84.73-133.32-127.23-16.84-16.13-34.27-31.71-50.26-48.64-9.6-10.16-15.57-8.31-24.72.57-58.81,57.01-118.12,113.49-177.3,170.12-4.1,3.93-7.85,8.69-12.72,11.27-9.89,5.23-17.95,3.26-20.12-9.1-.97-5.54-.81-11.32-.81-16.99-.04-152.24-.05-304.48,0-456.73,0-24.62,1.83-26.44,25.91-26.44,132.12-.04,264.23-.04,396.35,0,23.03,0,25.15,2.09,25.17,25.55.08,76.69.03,153.37.04,230.06ZM4281.02,917.66c7.56-6.6,12.26-10.4,16.62-14.57,53.42-51.11,106.8-102.27,160.16-153.44,18.28-17.53,21.05-17.59,38.82-.56,52.97,50.76,105.94,101.52,158.96,152.23,5.03,4.81,10.38,9.29,18.21,16.25.88-9.19,1.75-14.07,1.76-18.95.07-134.62-.2-269.24.38-403.86.07-16.01-6.26-18.47-20.2-18.42-117.86.44-235.73.24-353.6.25-22.38,0-22.56.04-22.57,22.38-.06,132.35-.05,264.7.01,397.04,0,5.94.77,11.88,1.45,21.63Z"/>
  <path class="cls-1" d="M288.79,75.59c6.13-7.67,10.49-13.25,14.96-18.72C343.49,8.26,404.02-11.39,458.72,6.54c68.87,22.57,113.48,76.5,118.1,139.91,5.78,79.42-24.36,144.5-80.82,197.25-63.07,58.93-128.98,114.84-193.35,172.4-10.44,9.34-18.25,8.46-28.35-.57-63.93-57.23-129.47-112.73-192.08-171.35C22.59,288.35-9.13,219.79,2.31,135.98,10.93,72.81,58.43,21.33,125.96,4.97c62.32-15.1,112.23,7.29,151.42,56.29,3.37,4.22,6.73,8.45,11.41,14.33ZM287.9,493.52c3.32-2.23,5.75-3.5,7.74-5.25,61.77-54.7,124.74-108.13,184.82-164.63,45.06-42.37,71.8-94.54,72-158.93.25-81.03-71.99-148.78-150.53-138.26-45.56,6.1-74.31,35.17-96.85,72.28-13.27,21.84-19.53,21.91-32.46.43-18.9-31.41-42.57-57.48-78.98-68.75C108.03,3.91,17.34,83.72,25.01,175.98c5.47,65.75,36.73,116.09,83.59,159.03,25.54,23.41,51.88,45.95,77.85,68.89,33.73,29.79,67.45,59.58,101.45,89.62Z"/>
  <path class="cls-1" d="M1394.23,255c-.24,45.03-8.92,81.99-25.29,117.47-3.22,6.98-3.83,17.09-1.43,24.38,11.98,36.45,25.7,72.33,37.92,108.71,1.93,5.75,1.49,14.76-1.92,18.99-2.48,3.08-12.35,2.58-17.77.58-34.52-12.78-68.49-27.07-103.19-39.28-8.09-2.85-19.71-2.47-27.39,1.23-153.17,73.75-328.66-13.11-362.17-179.8-27.95-139.06,73.26-279.14,213.83-295.95,140.13-16.75,259.91,71.71,284.41,210.4,2.28,12.91,2.38,26.21,2.98,33.29ZM1373.49,492.73c-2.44-8.05-3.77-13.13-5.51-18.08-8.54-24.33-16.63-48.85-26.02-72.86-5.19-13.26-5.09-24.51,2.02-37.4,17.85-32.36,25.73-67.83,25.47-104.53-1-138.38-123.38-244.13-260.57-223.08-95.47,14.65-159.38,70.47-185.73,162.98-26.22,92.07-.77,173.01,72.19,234.48,74.21,62.53,158.82,71.23,246.8,29.97,18.12-8.5,32.51-10.99,50.68-2.19,20.21,9.79,41.84,16.7,62.89,24.76,4.86,1.86,9.89,3.31,17.79,5.93Z"/>
</svg>